<?xml version="1.0" encoding="UTF-8"?>
<svg xmlns="http://www.w3.org/2000/svg" width="216" height="48" viewBox="0 0 216 48" fill="none">
  <path d="M156.371 22.9243C156.463 26.6734 154.421 30.4839 149.243 30.4839H144.551V15.795H149.243C154.178 15.7643 156.28 19.3597 156.371 22.9243ZM160.636 22.9551C160.545 17.2701 157.041 11.6772 149.243 11.6772H140.286V34.6324H149.243C157.224 34.6324 160.728 28.763 160.636 22.9551Z" fill="#3B3F47"></path>
  <path d="M171.725 31.467C169.074 31.467 166.972 29.6232 166.972 26.5503C166.972 23.4773 169.074 21.6642 171.725 21.6642C177.97 21.6642 177.97 31.467 171.725 31.467ZM180.407 34.6322V18.4376H176.599L176.477 20.6809C175.563 19.0829 173.522 18.0688 171.359 18.0688C166.668 18.0381 162.981 20.9574 162.981 26.5195C162.981 32.0816 166.485 35.1546 171.237 35.1239C173.035 35.0931 175.533 34.1713 176.447 32.266L176.629 34.6322H180.407Z" fill="#3B3F47"></path>
  <path d="M186.652 14.3201V18.4994H183.667V21.9411H186.652V28.9475C186.652 32.9731 188.937 34.9706 192.41 34.8476C193.629 34.8169 194.543 34.6018 195.7 34.1716L194.604 30.7606C194.025 31.0679 193.294 31.2523 192.684 31.2523C191.435 31.2523 190.613 30.484 190.613 28.9475V21.9411H195.061V18.4994H190.643V13.9207L186.652 14.3201Z" fill="#3B3F47"></path>
  <path d="M206.332 31.467C203.682 31.467 201.58 29.6232 201.58 26.5503C201.58 23.4773 203.682 21.6642 206.332 21.6642C212.577 21.6642 212.577 31.467 206.332 31.467ZM215.014 34.6322V18.4376H211.206L211.084 20.6809C210.171 19.0829 208.129 18.0688 205.966 18.0688C201.275 18.0381 197.589 20.9574 197.589 26.5195C197.589 32.0816 201.092 35.1546 205.845 35.1239C207.642 35.0931 210.14 34.1713 211.054 32.266L211.237 34.6322H215.014Z" fill="#3B3F47"></path>
  <path d="M56.2368 34.6327V26.1512H67.6609V22.1564H56.2368V15.8875H68.3311V11.7083H51.9414V34.6327H56.2368Z" fill="#FF6600"></path>
  <path d="M78.9932 31.4673C76.3733 31.4673 74.2408 29.6235 74.2408 26.5505C74.2408 23.4775 76.3428 21.6645 78.9932 21.6645C85.2383 21.6645 85.2383 31.4673 78.9932 31.4673ZM87.6754 34.6324V18.4378H83.8674L83.7456 20.6811C82.8317 19.0832 80.7906 18.0691 78.6276 18.0691C73.9362 18.0384 70.25 20.9577 70.25 26.5198C70.25 32.0819 73.7534 35.1549 78.5058 35.1241C80.3031 35.0934 82.8012 34.1715 83.7151 32.2663L83.8979 34.6324H87.6754Z" fill="#FF6600"></path>
  <path d="M104.278 26.5507C104.278 29.3778 102.268 31.3138 99.7088 31.3138C97.1498 31.3138 95.0478 29.47 95.0478 26.5507C95.0478 23.6314 97.1803 21.8183 99.7088 21.8183C102.237 21.8183 104.278 23.6314 104.278 26.5507ZM108.239 26.5507C108.239 20.9579 104.766 18.0693 100.074 18.0693C98.3988 18.0693 95.7485 18.9912 94.8041 20.6506V11.6775H90.8438V34.6326H94.5604L94.8345 32.3894C96.0836 34.3253 98.0637 34.9707 100.013 34.9707C104.705 35.0014 108.239 31.867 108.239 26.5507Z" fill="#FF6600"></path>
  <path d="M114.666 11.7083H110.736V34.6634H114.666V11.7083Z" fill="#FF6600"></path>
  <path d="M130.234 24.6761H121.582C122.161 22.5865 123.928 21.5417 126.06 21.5417C128.345 21.511 129.99 22.5558 130.234 24.6761ZM125.938 17.9771C120.729 17.9771 117.408 21.511 117.408 26.4277C117.408 31.6211 120.698 35.0628 126.212 35.0628C128.649 35.0628 131.422 34.2024 133.097 32.4508L130.569 29.9309C129.655 30.8836 127.736 31.4367 126.273 31.4367C123.471 31.4367 121.765 29.9924 121.49 27.995H134.011C134.651 21.3266 131.3 17.9771 125.938 17.9771Z" fill="#FF6600"></path>
  <path d="M0 11.6467L19.893 0.0615234V10.8784L0 22.4635V11.6467Z" fill="#FF6600"></path>
  <path d="M0 24.6452L19.893 13.0601V23.2009L0 34.786V24.6452Z" fill="#FF6600"></path>
  <path d="M32.3223 29.3472V6.14624L41.6443 11.5854V34.7864L32.3223 29.3472Z" fill="#3B3F47"></path>
  <path d="M21.751 23.201V0L30.4637 5.07042V28.2714L21.751 23.201Z" fill="#3B3F47"></path>
  <path d="M0.944336 36.384L10.2663 30.9756L30.2203 42.5914L20.8983 47.9999L0.944336 36.384Z" fill="#FF6600"></path>
  <path d="M12.125 29.9002L20.8377 24.8298L40.7917 36.4457L32.0485 41.5161L12.125 29.9002Z" fill="#3B3F47"></path>
</svg>
